# xmcd CD database file
#
# Track frame offsets:
#	150
#	19282
#	37132
#	49377
#	58267
#	75090
#	91297
#	115142
#	137485
#	163275
#	172110
#	192317
#	212387
#
# Disc length: 3184 seconds
#
# Revision: 1
# Processed by: cddbd v1.4PL0 Copyright (c) Steve Scherf et al.
# Submitted via: Feurio! 1.65.3ß - http://www.feurio.com
#
DISCID=b40c6e0d
DTITLE=Nobby Reed - Guitar On My Back
DYEAR=1996
DGENRE=blues
TTITLE0=Out The Bottle
TTITLE1=Satisfied Blues
TTITLE2=Nothin' Takes The Place
TTITLE3=Buddy's Muscle
TTITLE4=Good Times
TTITLE5=Dance Away Your Blues
TTITLE6=E-Z Goin' Papa
TTITLE7=Where Does My Love Lie
TTITLE8=I'm Cryin' Too
TTITLE9=River's Edge
TTITLE10=Gift Of Love
TTITLE11=My Intentions
TTITLE12=At The Bottom
EXTD=Canadian Blues Artist
EXTT0=
EXTT1=
EXTT2=
EXTT3=
EXTT4=
EXTT5=
EXTT6=
EXTT7=
EXTT8=
EXTT9=
EXTT10=
EXTT11=
EXTT12=
PLAYORDER=
